<?xml version="1.0" encoding="UTF-8" standalone="no"?>
<svg
   viewBox="0 0 36 36"
   version="1.1"
   id="svg8"
   sodipodi:docname="pleading-face.svg"
   inkscape:version="1.4 (e7c3feb100, 2024-10-09)"
   xmlns:inkscape="http://www.inkscape.org/namespaces/inkscape"
   xmlns:sodipodi="http://sodipodi.sourceforge.net/DTD/sodipodi-0.dtd"
   xmlns="http://www.w3.org/2000/svg"
   xmlns:svg="http://www.w3.org/2000/svg">
  <defs
     id="defs8" />
  <sodipodi:namedview
     id="namedview8"
     pagecolor="#ffffff"
     bordercolor="#000000"
     borderopacity="0.25"
     inkscape:showpageshadow="2"
     inkscape:pageopacity="0.0"
     inkscape:pagecheckerboard="0"
     inkscape:deskcolor="#d1d1d1"
     inkscape:zoom="12.458333"
     inkscape:cx="19.745819"
     inkscape:cy="20.70903"
     inkscape:window-width="855"
     inkscape:window-height="2106"
     inkscape:window-x="6801"
     inkscape:window-y="30"
     inkscape:window-maximized="1"
     inkscape:current-layer="svg8"
     inkscape:document-units="in" />
  <circle
     cx="18"
     cy="18"
     fill="#ffcc4d"
     r="18"
     id="circle1" />
  <g
     inkscape:groupmode="layer"
     id="layer2"
     inkscape:label="brown"
     style="display:inline">
    <path
       d="m 20.996,27 c -0.103,0 -0.206,-0.016 -0.309,-0.049 -1.76,-0.571 -3.615,-0.571 -5.375,0 -0.524,0.169 -1.089,-0.117 -1.26,-0.642 -0.171,-0.525 0.117,-1.089 0.643,-1.26 2.162,-0.702 4.447,-0.702 6.609,0 0.525,0.171 0.813,0.735 0.643,1.26 C 21.81,26.73 21.418,27 20.996,27 Z"
       fill="#65471b"
       id="path1" />
    <path
       d="m 21.351,7.583 c -1.297,0.55 -1.947,2.301 -1.977,5.289 l 0.039,0.068 c 0.897,1.319 2.373,2.224 4.088,2.332 0.114,0.007 0.228,0.011 0.341,0.011 2.634,0 4.849,-1.937 5.253,-4.524 -0.115,-0.105 -0.221,-0.212 -0.343,-0.316 -3.715,-3.17 -6.467,-3.257 -7.401,-2.86 z"
       fill="#65471b"
       id="path3" />
    <path
       d="m 12.159,15.283 c 0.113,0 0.227,-0.004 0.341,-0.011 1.715,-0.108 3.191,-1.013 4.088,-2.332 l 0.039,-0.068 C 16.596,9.884 15.947,8.133 14.65,7.583 13.716,7.186 10.963,7.273 7.249,10.442 c -0.122,0.104 -0.227,0.211 -0.343,0.316 0.404,2.588 2.619,4.525 5.253,4.525 z"
       fill="#65471b"
       id="path6" />
  </g>
  <g
     inkscape:groupmode="layer"
     id="layer1"
     inkscape:label="white">
    <path
       d="m30.335 12.068c-.903 2.745-3.485 4.715-6.494 4.715-.144 0-.289-.005-.435-.014-1.477-.093-2.842-.655-3.95-1.584.036.495.076.997.136 1.54.152 1.388.884 2.482 2.116 3.163.82.454 1.8.688 2.813.752 1.734.109 3.57-.28 4.873-.909 1.377-.665 2.272-1.862 2.456-3.285.183-1.415-.354-2.924-1.515-4.378z"
       fill="#fff"
       id="path2" />
    <circle
       cx="21.413"
       cy="10.705"
       fill="#fff"
       r="1.107"
       id="circle4" />
    <path
       d="m12.159 16.783c-3.009 0-5.591-1.97-6.494-4.715-1.161 1.454-1.697 2.963-1.515 4.377.185 1.423 1.079 2.621 2.456 3.285 1.303.629 3.138 1.018 4.873.909 1.013-.064 1.993-.297 2.813-.752 1.231-.681 1.963-1.775 2.116-3.163.06-.542.1-1.042.136-1.536-1.103.923-2.47 1.487-3.95 1.58-.146.011-.291.015-.435.015z"
       fill="#fff"
       id="path5" />
    <path
       d="m9.781 11.81c.61-.038 1.074-.564 1.035-1.174-.038-.61-.564-1.074-1.174-1.036s-1.074.564-1.036 1.174c.039.61.565 1.074 1.175 1.036z"
       fill="#fff"
       id="path8" />
  </g>
  <g
     inkscape:groupmode="layer"
     id="layer3"
     inkscape:label="orange"
     style="display:inline">
    <path
       d="m 23.841,16.783 c 3.009,0 5.591,-1.97 6.494,-4.715 -0.354,-0.443 -0.771,-0.88 -1.241,-1.309 -0.404,2.587 -2.619,4.524 -5.253,4.524 -0.113,0 -0.227,-0.004 -0.341,-0.011 -1.715,-0.108 -3.191,-1.013 -4.088,-2.332 l -0.039,-0.068 c -0.007,0.701 0.021,1.473 0.083,2.313 1.108,0.929 2.473,1.491 3.95,1.584 0.146,0.01 0.291,0.014 0.435,0.014 z"
       fill="#f4900c"
       id="path4"
       style="display:inline" />
    <path
       d="m 16.626,12.872 -0.039,0.068 c -0.897,1.319 -2.373,2.224 -4.088,2.332 -0.114,0.007 -0.228,0.011 -0.341,0.011 -2.634,0 -4.849,-1.937 -5.253,-4.524 -0.47,0.429 -0.887,0.866 -1.241,1.309 0.903,2.745 3.485,4.715 6.494,4.715 0.144,0 0.289,-0.005 0.435,-0.014 1.48,-0.093 2.847,-0.657 3.95,-1.58 0.062,-0.841 0.091,-1.614 0.083,-2.317 z"
       fill="#f4900c"
       id="path7"
       style="display:inline" />
  </g>
</svg>
